<?xml version="1.0" encoding="UTF-8" standalone="no"?>
<!DOCTYPE svg PUBLIC "-//W3C//DTD SVG 1.1//EN"
 "http://www.w3.org/Graphics/SVG/1.1/DTD/svg11.dtd">
<!-- Generated by graphviz version 14.1.1 (20251213.1925)
 -->
<!-- Title: Dependencies Pages: 1 -->
<svg width="348pt" height="717pt"
 viewBox="0.00 0.00 348.00 717.00" xmlns="http://www.w3.org/2000/svg" xmlns:xlink="http://www.w3.org/1999/xlink">
<g id="graph0" class="graph" transform="scale(1 1) rotate(0) translate(4 712.5)">
<title>Dependencies</title>
<polygon fill="white" stroke="none" points="-4,4 -4,-712.5 343.5,-712.5 343.5,4 -4,4"/>
<text xml:space="preserve" text-anchor="middle" x="169.75" y="-7.2" font-family="Times New Roman,serif" font-size="14.00">simple_vision &#45; Dependencies</text>
<!-- simple_vision -->
<g id="node1" class="node">
<title>simple_vision</title>
<polygon fill="lightblue" stroke="black" points="92.5,-384.5 0,-384.5 0,-348.5 92.5,-348.5 92.5,-384.5"/>
<text xml:space="preserve" text-anchor="middle" x="46.25" y="-361.45" font-family="Times New Roman,serif" font-size="14.00">simple_vision</text>
</g>
<!-- simple_decimal -->
<g id="node2" class="node">
<title>simple_decimal</title>
<polygon fill="lightblue" stroke="black" points="339.5,-708.5 236.5,-708.5 236.5,-672.5 339.5,-672.5 339.5,-708.5"/>
<text xml:space="preserve" text-anchor="middle" x="288" y="-685.45" font-family="Times New Roman,serif" font-size="14.00">simple_decimal</text>
</g>
<!-- simple_vision&#45;&gt;simple_decimal -->
<g id="edge1" class="edge">
<title>simple_vision&#45;&gt;simple_decimal</title>
<path fill="none" stroke="black" stroke-dasharray="5,2" d="M18.5,-384.85C18.5,-453.39 18.5,-690.5 18.5,-690.5 18.5,-690.5 224.52,-690.5 224.52,-690.5"/>
<polygon fill="black" stroke="black" points="224.52,-694 234.52,-690.5 224.52,-687 224.52,-694"/>
</g>
<!-- simple_json -->
<g id="node3" class="node">
<title>simple_json</title>
<polygon fill="lightblue" stroke="black" points="329,-636.5 247,-636.5 247,-600.5 329,-600.5 329,-636.5"/>
<text xml:space="preserve" text-anchor="middle" x="288" y="-613.45" font-family="Times New Roman,serif" font-size="14.00">simple_json</text>
</g>
<!-- simple_vision&#45;&gt;simple_json -->
<g id="edge2" class="edge">
<title>simple_vision&#45;&gt;simple_json</title>
<path fill="none" stroke="black" stroke-dasharray="5,2" d="M36.5,-384.62C36.5,-442.4 36.5,-618.5 36.5,-618.5 36.5,-618.5 235.24,-618.5 235.24,-618.5"/>
<polygon fill="black" stroke="black" points="235.24,-622 245.24,-618.5 235.24,-615 235.24,-622"/>
</g>
<!-- simple_regex -->
<g id="node4" class="node">
<title>simple_regex</title>
<polygon fill="lightblue" stroke="black" points="332.75,-564.5 243.25,-564.5 243.25,-528.5 332.75,-528.5 332.75,-564.5"/>
<text xml:space="preserve" text-anchor="middle" x="288" y="-541.45" font-family="Times New Roman,serif" font-size="14.00">simple_regex</text>
</g>
<!-- simple_vision&#45;&gt;simple_regex -->
<g id="edge3" class="edge">
<title>simple_vision&#45;&gt;simple_regex</title>
<path fill="none" stroke="black" stroke-dasharray="5,2" d="M55.5,-384.75C55.5,-430.51 55.5,-546.5 55.5,-546.5 55.5,-546.5 231.38,-546.5 231.38,-546.5"/>
<polygon fill="black" stroke="black" points="231.38,-550 241.38,-546.5 231.38,-543 231.38,-550"/>
</g>
<!-- simple_cairo -->
<g id="node5" class="node">
<title>simple_cairo</title>
<polygon fill="lightblue" stroke="black" points="331.25,-492.5 244.75,-492.5 244.75,-456.5 331.25,-456.5 331.25,-492.5"/>
<text xml:space="preserve" text-anchor="middle" x="288" y="-469.45" font-family="Times New Roman,serif" font-size="14.00">simple_cairo</text>
</g>
<!-- simple_vision&#45;&gt;simple_cairo -->
<g id="edge4" class="edge">
<title>simple_vision&#45;&gt;simple_cairo</title>
<path fill="none" stroke="black" stroke-dasharray="5,2" d="M73.5,-384.82C73.5,-415.63 73.5,-474.5 73.5,-474.5 73.5,-474.5 232.82,-474.5 232.82,-474.5"/>
<polygon fill="black" stroke="black" points="232.82,-478 242.82,-474.5 232.82,-471 232.82,-478"/>
</g>
<!-- simple_sorter -->
<g id="node6" class="node">
<title>simple_sorter</title>
<polygon fill="lightblue" stroke="black" points="333.12,-420.5 242.88,-420.5 242.88,-384.5 333.12,-384.5 333.12,-420.5"/>
<text xml:space="preserve" text-anchor="middle" x="288" y="-397.45" font-family="Times New Roman,serif" font-size="14.00">simple_sorter</text>
</g>
<!-- simple_vision&#45;&gt;simple_sorter -->
<g id="edge5" class="edge">
<title>simple_vision&#45;&gt;simple_sorter</title>
<path fill="none" stroke="black" stroke-dasharray="5,2" d="M92.77,-366.5C162.87,-366.5 287.5,-366.5 287.5,-366.5 287.5,-366.5 287.5,-372.56 287.5,-372.56"/>
<polygon fill="black" stroke="black" points="284,-372.56 287.5,-382.56 291,-372.56 284,-372.56"/>
</g>
<!-- simple_testing -->
<g id="node7" class="node">
<title>simple_testing</title>
<polygon fill="lightblue" stroke="black" points="335.75,-348.5 240.25,-348.5 240.25,-312.5 335.75,-312.5 335.75,-348.5"/>
<text xml:space="preserve" text-anchor="middle" x="288" y="-325.45" font-family="Times New Roman,serif" font-size="14.00">simple_testing</text>
</g>
<!-- simple_vision&#45;&gt;simple_testing -->
<g id="edge6" class="edge">
<title>simple_vision&#45;&gt;simple_testing</title>
<path fill="none" stroke="black" stroke-dasharray="5,2" d="M77.5,-348.08C77.5,-339.22 77.5,-330.5 77.5,-330.5 77.5,-330.5 228.46,-330.5 228.46,-330.5"/>
<polygon fill="black" stroke="black" points="228.46,-334 238.46,-330.5 228.46,-327 228.46,-334"/>
</g>
<!-- base -->
<g id="node8" class="node">
<title>base</title>
<polygon fill="lightgray" stroke="black" points="315,-276.5 261,-276.5 261,-240.5 315,-240.5 315,-276.5"/>
<text xml:space="preserve" text-anchor="middle" x="288" y="-253.45" font-family="Times New Roman,serif" font-size="14.00">base</text>
</g>
<!-- simple_vision&#45;&gt;base -->
<g id="edge7" class="edge">
<title>simple_vision&#45;&gt;base</title>
<path fill="none" stroke="black" stroke-dasharray="5,2" d="M61.5,-348.18C61.5,-317.37 61.5,-258.5 61.5,-258.5 61.5,-258.5 249.17,-258.5 249.17,-258.5"/>
<polygon fill="black" stroke="black" points="249.17,-262 259.17,-258.5 249.17,-255 249.17,-262"/>
</g>
<!-- time -->
<g id="node9" class="node">
<title>time</title>
<polygon fill="lightgray" stroke="black" points="315,-204.5 261,-204.5 261,-168.5 315,-168.5 315,-204.5"/>
<text xml:space="preserve" text-anchor="middle" x="288" y="-181.45" font-family="Times New Roman,serif" font-size="14.00">time</text>
</g>
<!-- simple_vision&#45;&gt;time -->
<g id="edge8" class="edge">
<title>simple_vision&#45;&gt;time</title>
<path fill="none" stroke="black" stroke-dasharray="5,2" d="M46.5,-348.25C46.5,-302.49 46.5,-186.5 46.5,-186.5 46.5,-186.5 249.25,-186.5 249.25,-186.5"/>
<polygon fill="black" stroke="black" points="249.25,-190 259.25,-186.5 249.25,-183 249.25,-190"/>
</g>
<!-- vision2 -->
<g id="node10" class="node">
<title>vision2</title>
<polygon fill="lightgray" stroke="black" points="315.88,-132.5 260.12,-132.5 260.12,-96.5 315.88,-96.5 315.88,-132.5"/>
<text xml:space="preserve" text-anchor="middle" x="288" y="-109.45" font-family="Times New Roman,serif" font-size="14.00">vision2</text>
</g>
<!-- simple_vision&#45;&gt;vision2 -->
<g id="edge9" class="edge">
<title>simple_vision&#45;&gt;vision2</title>
<path fill="none" stroke="black" stroke-dasharray="5,2" d="M30.5,-348.38C30.5,-290.6 30.5,-114.5 30.5,-114.5 30.5,-114.5 248.44,-114.5 248.44,-114.5"/>
<polygon fill="black" stroke="black" points="248.44,-118 258.44,-114.5 248.44,-111 248.44,-118"/>
</g>
<!-- eqa_testing -->
<g id="node11" class="node">
<title>eqa_testing</title>
<polygon fill="lightgray" stroke="black" points="326.75,-60.5 249.25,-60.5 249.25,-24.5 326.75,-24.5 326.75,-60.5"/>
<text xml:space="preserve" text-anchor="middle" x="288" y="-37.45" font-family="Times New Roman,serif" font-size="14.00">eqa_testing</text>
</g>
<!-- simple_vision&#45;&gt;eqa_testing -->
<g id="edge10" class="edge">
<title>simple_vision&#45;&gt;eqa_testing</title>
<path fill="none" stroke="black" stroke-dasharray="5,2" d="M15.5,-348.15C15.5,-279.61 15.5,-42.5 15.5,-42.5 15.5,-42.5 237.44,-42.5 237.44,-42.5"/>
<polygon fill="black" stroke="black" points="237.44,-46 247.44,-42.5 237.44,-39 237.44,-46"/>
</g>
</g>
</svg>
